# Blender v2.63 (sub 0) OBJ File: 'boat1.blend'
# www.blender.org
mtllib hull.mtl
o Cylinder_Cylinder.003
v -0.002990 1.856002 3.033175
v -0.002990 1.783836 0.041183
v 0.000913 1.783836 0.041183
v 0.000913 1.856002 3.033175
v -0.002990 7.220709 1.563206
v -0.002990 8.084932 0.010794
v 0.000913 8.084932 0.010794
v 0.000913 7.220709 1.563206
v -0.001038 1.808227 3.866161
v -0.001038 1.690569 0.008354
v 0.040117 1.831640 3.865448
v 0.040117 1.713982 0.007639
v 0.057164 1.888163 3.863724
v 0.057164 1.770506 0.005916
v 0.040117 1.944687 3.862000
v 0.040117 1.827030 0.004192
v -0.001038 1.968100 3.861286
v -0.001038 1.850443 0.003478
v -0.042194 1.944687 3.862000
v -0.042194 1.827030 0.004192
v -0.059241 1.888163 3.863724
v -0.059241 1.770506 0.005916
v -0.042194 1.831640 3.865448
v -0.042194 1.713982 0.007639
v -0.001038 0.199784 0.007512
v -0.001038 8.199784 0.007512
v -0.001038 0.199784 -0.076897
v -0.001038 8.199784 -0.014159
v 0.041166 0.199784 -0.065589
v 0.009797 8.199784 -0.011256
v 0.072062 0.199784 -0.034693
v 0.017729 8.199784 -0.003324
v 0.083371 0.199784 0.007512
v 0.020633 8.199784 0.007512
v 0.072062 0.199784 0.049716
v 0.017729 8.199784 0.018347
v 0.041166 0.199784 0.080612
v 0.009797 8.199784 0.026279
v -0.001038 0.199784 0.091921
v -0.001038 8.199784 0.029183
v -0.043243 0.199784 0.080612
v -0.011874 8.199784 0.026279
v -0.074138 0.199784 0.049716
v -0.019806 8.199784 0.018347
v -0.085447 0.199784 0.007512
v -0.022709 8.199784 0.007512
v -0.074138 0.199784 -0.034693
v -0.019806 8.199784 -0.003324
v -0.043243 0.199784 -0.065589
v -0.011874 8.199784 -0.011256
vt 0.433733 0.000000
vt 0.867466 0.007799
vt 0.659175 0.786681
vt 0.434932 0.913324
vt 0.994651 0.000002
vt 0.995216 0.000000
vt 0.985668 0.735200
vt 0.985206 0.735201
vt 0.432534 0.913324
vt 0.208291 0.786681
vt 0.000000 0.007799
vt 0.987305 0.612757
vt 0.986842 0.612758
vt 0.997997 0.000002
vt 0.998563 0.000000
vt 0.972253 0.380517
vt 0.973340 0.814241
vt 0.972877 0.814243
vt 0.971791 0.380519
vt 0.934263 0.609943
vt 0.933690 0.381314
vt 0.934152 0.381312
vt 0.934725 0.609942
vt 0.973326 0.000000
vt 0.966918 0.381128
vt 0.962046 0.381232
vt 0.967361 0.000104
vt 0.933690 0.381309
vt 0.934467 0.000000
vt 0.942656 0.000001
vt 0.940379 0.381310
vt 0.950861 0.000003
vt 0.947080 0.381312
vt 0.973190 0.380517
vt 0.981007 0.000222
vt 0.986971 0.000000
vt 0.978062 0.380295
vt 0.992937 0.000186
vt 0.982935 0.380480
vt 0.947255 0.381312
vt 0.959065 0.000001
vt 0.953956 0.381310
vt 0.801937 0.415179
vt 0.806660 0.410199
vt 0.813353 0.411716
vt 0.801950 0.423737
vt 0.818095 0.418840
vt 0.806691 0.430862
vt 0.818108 0.427399
vt 0.813385 0.432378
vt 0.979291 0.000067
vt 0.971791 0.381195
vt 0.967254 0.000000
vt 0.960645 0.381309
vt 0.839541 0.340227
vt 0.832848 0.341740
vt 0.828125 0.336760
vt 0.828139 0.328205
vt 0.844283 0.333108
vt 0.832882 0.321086
vt 0.844297 0.324554
vt 0.839575 0.319574
vt 0.829926 0.422017
vt 0.838577 0.413366
vt 0.841744 0.418850
vt 0.876573 0.738232
vt 0.874095 0.737420
vt 0.874759 0.736012
vt 0.905038 0.981367
vt 0.892124 0.000007
vt 0.893692 0.000000
vt 0.910028 0.981338
vt 0.841744 0.425183
vt 0.874095 0.739046
vt 0.888658 0.000065
vt 0.887021 0.981487
vt 0.886082 0.981480
vt 0.884179 0.000038
vt 0.838577 0.430668
vt 0.874758 0.740454
vt 0.884799 0.981474
vt 0.878062 0.000014
vt 0.833093 0.433835
vt 0.875908 0.741266
vt 0.883517 0.981470
vt 0.871945 0.000000
vt 0.826760 0.433834
vt 0.877236 0.741266
vt 0.882577 0.981470
vt 0.867466 0.000000
vt 0.821275 0.430668
vt 0.878386 0.740453
vt 0.922126 0.000139
vt 0.917053 0.979133
vt 0.915772 0.979098
vt 0.916017 0.000000
vt 0.818108 0.425183
vt 0.879050 0.739045
vt 0.914488 0.979123
vt 0.909891 0.000097
vt 0.818108 0.418850
vt 0.879050 0.737419
vt 0.913544 0.979201
vt 0.905392 0.000403
vt 0.821275 0.413365
vt 0.878387 0.736011
vt 0.934361 0.000000
vt 0.932882 0.981470
vt 0.931599 0.981474
vt 0.928243 0.000014
vt 0.826759 0.410199
vt 0.877237 0.735199
vt 0.930316 0.981480
vt 0.922126 0.000038
vt 0.833093 0.410199
vt 0.875909 0.735199
vt 0.896360 0.981463
vt 0.889396 0.000032
vt 0.890551 0.000019
vt 0.900035 0.981413
vt 0.839409 0.320233
vt 0.828535 0.336901
vt 0.828376 0.328321
vt 0.844033 0.333267
vt 0.844178 0.324606
vt 0.839321 0.320037
vn -0.576342 -0.586138 -0.569414
vn -0.565600 -0.492233 0.661641
vn -0.629414 0.479537 0.611408
vn -0.555071 0.716056 -0.423231
vn 0.555071 0.716056 -0.423231
vn 0.576342 -0.586138 -0.569414
vn 0.629414 0.479537 0.611408
vn 0.565600 -0.492233 0.661641
vn 0.022248 -0.999268 0.030152
vn 0.000092 -0.810022 -0.586383
vn 0.605731 -0.502091 -0.617206
vn 0.790704 -0.611896 0.018311
vn 0.762047 -0.019898 -0.647175
vn 0.999969 -0.000214 -0.000336
vn 0.605853 0.463271 -0.646748
vn 0.790887 0.611621 -0.018983
vn 0.000092 0.772637 -0.634785
vn 0.022248 0.999268 -0.030793
vn -0.605731 0.463332 -0.646809
vn -0.772576 0.634571 -0.019684
vn -0.761956 -0.019898 -0.647267
vn -0.999969 -0.000214 -0.000336
vn -0.605609 -0.502121 -0.617267
vn -0.772362 -0.634846 0.019013
vn 0.000000 -1.000000 0.000000
vn 0.000000 -0.650288 -0.759667
vn 0.379833 -0.650288 -0.657888
vn 0.000000 1.000000 0.000000
vn 0.377300 0.656117 -0.653523
vn 0.000000 0.656117 -0.754631
vn 0.657888 -0.650288 -0.379833
vn 0.653523 0.656117 -0.377300
vn 0.759667 -0.650288 0.000000
vn 0.754631 0.656117 0.000000
vn 0.657888 -0.650288 0.379833
vn 0.653523 0.656117 0.377300
vn 0.379833 -0.650288 0.657888
vn 0.377300 0.656117 0.653523
vn 0.000000 -0.650288 0.759667
vn 0.000000 0.656117 0.754631
vn -0.379833 -0.650288 0.657888
vn -0.377300 0.656117 0.653523
vn -0.657888 -0.650288 0.379833
vn -0.653523 0.656117 0.377300
vn -0.759667 -0.650288 0.000000
vn -0.754631 0.656117 0.000000
vn -0.657888 -0.650288 -0.379833
vn -0.653523 0.656117 -0.377300
vn -0.379833 -0.650288 -0.657888
vn -0.377300 0.656117 -0.653523
usemtl _sail1.png
s 1
f 2/1/1 1/2/2 5/3/3 6/4/4
f 6/5/4 7/6/5 3/7/6 2/8/1
f 7/9/5 8/10/7 4/11/8 3/1/6
f 1/12/2 4/13/8 8/14/7 5/15/3
f 1/16/2 2/17/1 3/18/6 4/19/8
f 8/20/7 7/21/5 6/22/4 5/23/3
f 9/24/9 10/25/10 12/26/11 11/27/12
f 11/28/12 12/29/11 14/30/13 13/31/14
f 13/31/14 14/30/13 16/32/15 15/33/16
f 15/34/16 16/35/15 18/36/17 17/37/18
f 17/37/18 18/36/17 20/38/19 19/39/20
f 19/40/20 20/32/19 22/41/21 21/42/22
f 20/43/19 18/44/17 16/45/15
f 22/46/21 20/43/19 16/45/15
f 22/46/21 16/45/15 14/47/13
f 24/48/23 22/46/21 14/47/13
f 12/49/11 24/48/23 14/47/13
f 12/49/11 10/50/10 24/48/23
f 23/51/24 24/52/23 10/25/10 9/24/9
f 21/42/22 22/41/21 24/53/23 23/54/24
f 15/55/16 17/56/18 19/57/20
f 15/55/16 19/57/20 21/58/22
f 13/59/14 15/55/16 21/58/22
f 13/59/14 21/58/22 23/60/24
f 11/61/12 13/59/14 23/60/24
f 9/62/9 11/61/12 23/60/24
f 25/63/25 27/64/26 29/65/27
f 26/66/28 30/67/29 28/68/30
f 27/69/26 28/70/30 30/71/29 29/72/27
f 25/63/25 29/65/27 31/73/31
f 26/66/28 32/74/32 30/67/29
f 29/75/27 30/76/29 32/77/32 31/78/31
f 25/63/25 31/73/31 33/79/33
f 26/66/28 34/80/34 32/74/32
f 31/78/31 32/77/32 34/81/34 33/82/33
f 25/63/25 33/79/33 35/83/35
f 26/66/28 36/84/36 34/80/34
f 33/82/33 34/81/34 36/85/36 35/86/35
f 25/63/25 35/83/35 37/87/37
f 26/66/28 38/88/38 36/84/36
f 35/86/35 36/85/36 38/89/38 37/90/37
f 25/63/25 37/87/37 39/91/39
f 26/66/28 40/92/40 38/88/38
f 37/93/37 38/94/38 40/95/40 39/96/39
f 25/63/25 39/91/39 41/97/41
f 26/66/28 42/98/42 40/92/40
f 39/96/39 40/95/40 42/99/42 41/100/41
f 25/63/25 41/97/41 43/101/43
f 26/66/28 44/102/44 42/98/42
f 41/100/41 42/99/42 44/103/44 43/104/43
f 25/63/25 43/101/43 45/105/45
f 26/66/28 46/106/46 44/102/44
f 43/107/43 44/108/44 46/109/46 45/110/45
f 25/63/25 45/105/45 47/111/47
f 26/66/28 48/112/48 46/106/46
f 45/110/45 46/109/46 48/113/48 47/114/47
f 25/63/25 47/111/47 49/115/49
f 26/66/28 50/116/50 48/112/48
f 47/117/47 48/118/48 50/119/50 49/120/49
f 25/63/25 49/115/49 27/64/26
f 26/66/28 28/68/30 50/116/50
f 49/120/49 50/119/50 28/70/30 27/69/26
f 9/121/9 19/56/20 17/122/18
f 9/121/9 21/57/22 19/123/20
f 9/121/9 17/55/18 15/124/16
f 9/121/9 15/59/16 13/125/14
f 13/125/14 11/62/12 9/121/9
f 21/126/22 9/60/9 23/58/24
o Cube_Cube.001
v -0.285270 -0.186832 2.791517
v -0.285270 -0.186832 1.344578
v 0.283194 -0.186832 1.344578
v 0.283194 -0.186832 2.791517
v -0.753903 0.819143 3.741344
v -0.376342 0.819143 -0.908140
v 0.374266 0.819143 -0.908140
v 0.751827 0.819143 3.741344
v -0.758018 0.819143 0.053121
v -0.385644 0.316155 -0.992488
v -0.285270 -0.186832 1.637281
v -0.857797 0.316155 3.848497
v -0.001038 0.782102 -1.349634
v 0.383568 0.316155 -0.992488
v -0.001038 -0.186832 1.344578
v 0.755941 0.819143 0.053121
v 0.855721 0.316155 3.848497
v 0.283194 -0.186832 1.637281
v -0.001038 0.819143 3.843723
v -0.001038 -0.186832 2.791517
v -0.862479 0.316155 0.007512
v -0.001038 0.316155 -1.290046
v 0.860403 0.316155 0.007512
v -0.001038 0.316155 3.950876
v -0.001038 -0.186832 1.637281
v -0.001038 0.504024 0.178674
v -0.636199 0.819143 -0.427510
v -0.563703 0.064662 -0.355975
v -0.285270 -0.186832 2.645165
v -0.857797 0.567649 3.848497
v 0.255285 0.819143 -1.067355
v 0.561626 0.064662 -0.355975
v -0.143154 -0.186832 1.344578
v 0.877698 0.819143 3.363093
v 0.777400 0.064662 3.648563
v 0.283194 -0.186832 1.490929
v -0.440406 0.819143 3.843723
v 0.141078 -0.186832 2.791517
v -0.879774 0.819143 3.363093
v -0.385644 0.567649 -0.992488
v -0.285270 -0.186832 1.490929
v -0.779476 0.064662 3.648563
v -0.257361 0.819143 -1.067355
v 0.383568 0.567649 -0.992488
v 0.141078 -0.186832 1.344578
v 0.634123 0.819143 -0.427510
v 0.855721 0.567649 3.848497
v 0.283194 -0.186832 2.645165
v 0.438330 0.819143 3.843723
v -0.143154 -0.186832 2.791517
v -0.779476 0.064662 0.454108
v -0.862479 0.567649 0.007512
v -1.001038 0.316155 3.450876
v -0.723850 0.316155 -0.492488
v -0.001038 0.064662 -0.355975
v -0.001038 0.691969 -1.443834
v -0.193341 0.316155 -1.151703
v 0.191265 0.316155 -1.151703
v 0.777400 0.064662 0.454108
v 0.860403 0.567649 0.007512
v 0.721774 0.316155 -0.492488
v 0.998962 0.316155 3.450876
v -0.001038 0.064662 3.648563
v -0.001038 0.567649 3.950876
v 0.498962 0.316155 3.950876
v -0.501038 0.316155 3.950876
v 0.141078 -0.186832 1.637281
v -0.143154 -0.186832 1.637281
v -0.001038 -0.186832 2.645165
v -0.001038 -0.186832 1.490929
v -0.517633 0.791952 0.178674
v 0.515557 0.791952 0.178674
v -0.001038 0.504024 3.488646
v -0.001038 0.819143 -0.427510
v -0.671617 0.064662 0.049066
v 0.280294 0.064662 -0.355975
v 0.777400 0.064662 3.243521
v -0.390257 0.064662 3.648563
v 0.141078 -0.186832 1.490929
v -0.318619 0.819143 -0.427510
v -0.779476 0.064662 3.243521
v -1.001038 0.567649 3.450876
v -0.723850 0.567649 -0.492488
v -0.282370 0.064662 -0.355975
v -0.263714 0.567649 -1.151703
v 0.261638 0.567649 -1.151703
v 0.669540 0.064662 0.049066
v 0.721774 0.567649 -0.492488
v 0.998962 0.567649 3.450876
v 0.388181 0.064662 3.648563
v 0.498962 0.567649 3.950876
v -0.501038 0.567649 3.950876
v 0.141078 -0.186832 2.645165
v -0.143154 -0.186832 2.645165
v -0.143154 -0.186832 1.490929
v -0.600725 0.791952 3.488646
v 0.598649 0.791952 3.488646
v 0.316542 0.819143 -0.427510
v -0.259336 0.504024 0.178674
v 0.257259 0.504024 0.178674
v -0.001038 0.504024 1.833660
v -0.300882 0.504024 3.488646
v -0.559179 0.791952 1.833660
v 0.298805 0.504024 3.488646
v 0.557103 0.791952 1.833660
v 0.278032 0.504024 1.833660
v -0.280109 0.504024 1.833660
vt 0.069871 0.234737
vt 0.089281 0.163910
vt 0.141200 0.463123
vt 0.140938 0.488762
vt 0.235426 0.164938
vt 0.284141 0.165281
vt 0.239634 0.463815
vt 0.215026 0.463642
vt 0.315068 0.796130
vt 0.314344 0.867088
vt 0.237047 0.717301
vt 0.237309 0.691662
vt 0.138613 0.716608
vt 0.163222 0.716781
vt 0.112155 0.865665
vt 0.044758 0.865191
vt 0.214764 0.489281
vt 0.239373 0.489454
vt 0.418447 0.748310
vt 0.429067 0.860421
vt 0.408250 0.832498
vt 0.362808 0.748230
vt 0.045483 0.794233
vt 0.050470 0.305563
vt 0.140677 0.514401
vt 0.138875 0.690969
vt 0.678075 0.830027
vt 0.682976 0.294397
vt 0.726755 0.292381
vt 0.721854 0.828011
vt 0.681318 0.206344
vt 0.675667 0.100986
vt 0.719446 0.098970
vt 0.725096 0.204328
vt 0.137996 0.164253
vt 0.186711 0.164596
vt 0.190417 0.463469
vt 0.165809 0.463296
vt 0.673583 0.066203
vt 0.647340 0.000000
vt 0.712416 0.020373
vt 0.715954 0.058085
vt 0.860854 0.067448
vt 0.859278 0.102542
vt 0.815372 0.100655
vt 0.818005 0.058355
vt 0.302103 0.236371
vt 0.320055 0.307460
vt 0.239111 0.515093
vt 0.855001 0.208176
vt 0.853723 0.293374
vt 0.809817 0.291487
vt 0.811095 0.206289
vt 0.857186 0.796549
vt 0.859979 0.838348
vt 0.816073 0.836461
vt 0.813281 0.794662
vt 0.246948 0.866613
vt 0.179551 0.866139
vt 0.187830 0.716954
vt 0.212439 0.717127
vt 0.957007 0.237867
vt 0.956738 0.150251
vt 0.999731 0.150119
vt 1.000000 0.237735
vt 0.956470 0.062635
vt 0.952336 0.000132
vt 0.995329 0.000000
vt 0.999462 0.062503
vt 0.212700 0.691489
vt 0.214502 0.514920
vt 0.163483 0.691142
vt 0.165285 0.514574
vt 0.189894 0.514747
vt 0.188092 0.691315
vt 0.165547 0.488935
vt 0.190156 0.489108
vt 0.383783 0.641958
vt 0.341550 0.663997
vt 0.320802 0.084091
vt 0.376795 0.352010
vt 0.369808 0.062061
vt 0.524481 0.351115
vt 0.520551 0.641048
vt 0.475298 0.640982
vt 0.475589 0.351044
vt 0.529726 0.748471
vt 0.518881 0.860550
vt 0.474054 0.909796
vt 0.474087 0.748391
vt 0.030149 0.226266
vt 0.055048 0.138841
vt 0.114505 0.051660
vt 0.181635 0.000000
vt 0.214686 0.024470
vt 0.247700 0.052597
vt 0.772370 0.740643
vt 0.767878 0.344522
vt 0.773022 0.798162
vt 0.172264 0.918142
vt 0.085685 0.917533
vt 0.024092 0.899163
vt 0.430044 0.640917
vt 0.000000 0.829330
vt 0.767878 0.351080
vt 0.761663 0.775252
vt 0.674325 0.878071
vt 0.718103 0.876055
vt 0.628707 0.854785
vt 0.632067 0.808180
vt 0.637007 0.294291
vt 0.635642 0.210641
vt 0.631515 0.115022
vt 0.148088 0.024002
vt 0.629490 0.080494
vt 0.631440 0.015047
vt 0.886034 0.000000
vt 0.820672 0.019019
vt 0.901921 0.014053
vt 0.904991 0.080662
vt 0.903459 0.115455
vt 0.768846 0.275959
vt 0.769816 0.207390
vt 0.900328 0.210315
vt 0.899272 0.291042
vt 0.902773 0.773554
vt 0.905273 0.814381
vt 0.320802 0.901251
vt 0.258843 0.918751
vt 0.953257 0.300395
vt 0.996250 0.300263
vt 0.906083 0.282334
vt 0.909856 0.227387
vt 0.909620 0.150396
vt 0.909384 0.073405
vt 0.905273 0.018482
vt 0.397863 0.000000
vt 0.342921 0.017857
vt 0.423349 0.061031
vt 0.475880 0.061107
vt 0.474839 0.000111
vt 0.426697 0.350974
vt 0.528412 0.061183
vt 0.579935 0.062365
vt 0.551815 0.000222
vt 0.606721 0.018237
vt 0.628707 0.084535
vt 0.606792 0.664380
vt 0.564795 0.642219
vt 0.572365 0.352292
vt 0.585366 0.748551
vt 0.539755 0.832687
vt 0.905322 0.548499
vt 0.905273 0.300395
vt 0.960921 0.319462
vt 0.961417 0.569360
vn -0.576373 -0.801996 -0.156682
vn -0.406598 -0.863613 -0.298044
vn -0.174627 -0.981719 -0.075625
vn -0.173315 -0.984252 -0.033906
vn 0.050752 -0.971068 -0.233222
vn 0.406598 -0.863613 -0.298044
vn 0.174627 -0.981719 -0.075625
vn 0.000000 -0.997284 -0.073336
vn 0.667043 -0.744774 0.017182
vn 0.435255 -0.821619 0.368053
vn 0.194220 -0.976074 0.097507
vn 0.233192 -0.972411 0.000000
vn -0.194220 -0.976074 0.097507
vn 0.000000 -0.989807 0.142216
vn -0.019929 -0.875851 0.482101
vn -0.435255 -0.821619 0.368053
vn 0.173315 -0.984252 -0.033906
vn 0.112918 0.984832 0.131504
vn -0.454390 0.800470 -0.390790
vn -0.515671 0.783990 -0.345500
vn -0.541948 0.811151 -0.219764
vn -0.667043 -0.744774 0.017182
vn -0.641743 -0.764550 -0.059725
vn -0.224616 -0.974425 -0.004730
vn -0.233192 -0.972411 0.000000
vn -0.960753 0.228523 0.157170
vn -0.967498 0.201758 -0.152287
vn -0.934721 -0.310282 -0.173132
vn -0.949553 -0.286874 0.126469
vn -0.897671 0.173956 -0.404859
vn -0.793542 0.104862 -0.599353
vn -0.599170 -0.539659 -0.591357
vn -0.861599 -0.321757 -0.392560
vn -0.050752 -0.971068 -0.233222
vn 0.000000 -0.976562 -0.215125
vn -0.728263 0.031587 -0.684561
vn 0.000000 0.111301 -0.993774
vn 0.000000 -0.653981 -0.756493
vn -0.447218 -0.661245 -0.602222
vn 0.728263 0.031587 -0.684561
vn 0.793542 0.104862 -0.599353
vn 0.599170 -0.539659 -0.591357
vn 0.447218 -0.661245 -0.602222
vn 0.576373 -0.801996 -0.156682
vn 0.641743 -0.764550 -0.059725
vn 0.224616 -0.974425 -0.004730
vn 0.897671 0.173956 -0.404859
vn 0.967498 0.201758 -0.152287
vn 0.934721 -0.310282 -0.173132
vn 0.861599 -0.321757 -0.392560
vn 0.960753 0.228523 0.157170
vn 0.666128 0.245949 0.704093
vn 0.621052 -0.367321 0.692343
vn 0.949553 -0.286874 0.126469
vn 0.019929 -0.875851 0.482101
vn 0.000000 -0.882473 0.470321
vn 0.145970 0.215125 0.965606
vn 0.000000 0.200018 0.979766
vn 0.000000 -0.424512 0.905393
vn 0.106510 -0.394024 0.912900
vn -0.145970 0.215125 0.965606
vn -0.666128 0.245949 0.704093
vn -0.621052 -0.367321 0.692343
vn -0.106510 -0.394024 0.912900
vn 0.305338 0.945860 0.109989
vn -0.541276 0.838008 -0.068728
vn -0.529038 0.846522 0.058718
vn 0.436781 0.899503 0.008911
vn 0.278664 0.947935 -0.153935
vn -0.390027 0.920774 0.007324
vn -0.359905 0.912595 0.193884
vn 0.000000 0.975646 0.219214
vn -0.112949 0.984832 0.131504
vn 0.454390 0.800470 -0.390790
vn 0.000000 0.734367 -0.678701
vn 0.000000 0.977996 0.208563
vn 0.359874 0.912595 0.193884
vn -0.386334 0.827174 0.408002
vn 0.515671 0.783990 -0.345500
vn 0.541948 0.811151 -0.219764
vn 0.541368 0.837947 -0.068728
vn 0.529191 0.846431 0.058718
vn 0.386334 0.827174 0.408002
vn -0.023072 0.913266 0.406690
vn 0.001251 0.964141 0.265358
vn 0.024537 0.913114 0.406903
vn 0.325358 0.902799 -0.281106
vn 0.000793 0.947142 -0.320811
vn 0.390027 0.920774 0.007324
vn -0.323985 0.903256 -0.281289
vn -0.277932 0.948149 -0.154027
vn -0.305185 0.945891 0.109989
vn -0.436567 0.899594 0.008911
usemtl _hull1.jpg
s 1
f 125/127/51 78/128/52 52/129/53 91/130/54
f 126/131/55 82/132/56 53/133/57 95/134/58
f 127/135/59 85/136/60 54/137/61 98/138/62
f 51/139/63 100/140/64 128/141/65 92/142/66
f 129/143/25 95/134/58 53/133/57 86/144/67
f 130/145/68 93/146/69 56/147/70 77/148/71
f 131/149/72 101/150/73 61/151/74 79/152/75
f 132/153/76 102/154/77 71/155/78 103/156/79
f 133/157/80 90/158/81 60/159/82 104/160/83
f 134/161/84 105/162/85 65/163/58 83/164/58
f 135/165/86 106/166/87 72/167/88 107/168/89
f 136/169/90 94/170/91 64/171/92 108/172/93
f 137/173/94 109/174/95 68/175/96 86/144/67
f 138/176/97 110/177/98 73/178/99 111/179/100
f 139/180/101 97/181/102 67/182/103 112/183/104
f 140/184/105 113/185/106 70/186/64 88/187/64
f 141/188/107 114/189/108 74/190/109 115/191/110
f 142/192/111 80/193/112 62/194/113 116/195/114
f 143/196/25 117/197/25 68/175/96 98/138/62
f 144/198/25 118/199/25 75/200/25 119/201/25
f 145/202/25 83/164/58 65/163/58 120/203/25
f 121/204/115 59/205/116 89/206/117
f 153/207/118 121/204/115 89/206/117
f 146/208/119 153/207/118 89/206/117
f 156/209/120 150/210/121 76/211/122 151/212/28
f 148/213/123 81/214/124 63/215/125 124/216/126
f 101/150/73 125/127/51 91/130/54 61/151/74
f 71/217/78 104/218/83 125/127/51 101/150/73
f 104/218/83 60/219/82 78/128/52 125/127/51
f 105/162/85 126/131/55 95/134/58 65/163/58
f 72/220/88 108/221/93 126/131/55 105/162/85
f 108/221/93 64/222/92 82/132/56 126/131/55
f 109/174/95 127/135/59 98/138/62 68/175/96
f 73/178/99 112/183/104 127/223/59 109/224/95
f 112/183/104 67/182/103 85/225/60 127/223/59
f 113/185/106 128/141/65 100/140/64 70/186/64
f 74/226/109 116/227/114 128/141/65 113/185/106
f 116/227/114 62/228/113 92/142/66 128/141/65
f 117/197/25 129/143/25 86/144/67 68/175/96
f 75/200/25 120/203/25 129/143/25 117/197/25
f 120/203/25 65/163/58 95/134/58 129/143/25
f 121/204/115 130/145/68 77/148/71 59/205/116
f 124/216/126 130/145/68 121/204/115
f 76/211/122 124/216/126 121/204/115
f 76/211/122 121/204/115 149/229/127
f 124/216/126 63/215/125 93/146/69 130/145/68
f 79/152/75 51/139/63 92/142/66 131/149/72
f 62/228/113 103/230/79 131/149/72 92/142/66
f 103/156/79 71/155/78 101/231/73 131/232/72
f 80/233/112 132/153/76 103/156/79 62/234/113
f 55/235/128 89/236/117 132/153/76 80/233/112
f 89/236/117 59/237/116 102/154/77 132/153/76
f 102/154/77 133/157/80 104/160/83 71/155/78
f 59/237/116 77/238/71 133/157/80 102/154/77
f 77/238/71 56/239/70 90/158/81 133/157/80
f 78/128/52 134/161/84 83/164/58 52/129/53
f 60/219/82 107/240/89 134/161/84 78/128/52
f 107/240/89 72/220/88 105/162/85 134/161/84
f 90/158/81 135/165/86 107/168/89 60/159/82
f 56/239/70 93/241/69 135/165/86 90/158/81
f 93/241/69 63/242/125 106/166/87 135/165/86
f 106/243/87 136/169/90 108/172/93 72/244/88
f 63/245/125 81/246/124 136/169/90 106/243/87
f 81/246/124 57/247/129 94/170/91 136/169/90
f 82/132/56 137/173/94 86/144/67 53/133/57
f 64/171/92 111/179/100 137/248/94 82/249/56
f 111/179/100 73/178/99 109/224/95 137/248/94
f 94/170/91 138/176/97 111/179/100 64/171/92
f 57/247/129 96/250/130 138/176/97 94/170/91
f 96/250/130 66/251/131 110/177/98 138/176/97
f 110/177/98 139/180/101 112/183/104 73/178/99
f 66/251/131 84/252/132 139/180/101 110/177/98
f 84/252/132 58/253/133 97/181/102 139/180/101
f 85/136/60 140/184/105 88/187/64 54/137/61
f 67/254/103 115/255/110 140/184/105 85/136/60
f 115/255/110 74/226/109 113/185/106 140/184/105
f 97/256/102 141/188/107 115/191/110 67/257/103
f 58/258/133 99/259/134 141/188/107 97/256/102
f 99/259/134 69/260/135 114/189/108 141/188/107
f 114/189/108 142/192/111 116/195/114 74/190/109
f 69/260/135 87/261/136 142/192/111 114/189/108
f 87/261/136 55/262/128 80/193/112 142/192/111
f 88/187/64 143/196/25 98/138/62 54/137/61
f 70/186/64 119/201/25 143/196/25 88/187/64
f 119/201/25 75/200/25 117/197/25 143/196/25
f 100/140/64 144/198/25 119/201/25 70/186/64
f 51/139/63 79/152/75 144/198/25 100/140/64
f 79/152/75 61/151/74 118/199/25 144/198/25
f 118/199/25 145/202/25 120/203/25 75/200/25
f 61/151/74 91/130/54 145/202/25 118/199/25
f 91/130/54 52/129/53 83/164/58 145/202/25
f 87/263/136 146/208/119 89/206/117 55/264/128
f 152/265/137 146/208/119 87/263/136
f 123/266/138 152/265/137 87/263/136
f 69/267/135 123/266/138 87/263/136
f 157/268/139 149/229/127 121/204/115 153/207/118
f 154/269/140 123/266/138 69/267/135
f 147/270/141 154/269/140 69/267/135
f 99/271/134 147/270/141 69/267/135
f 58/272/133 84/273/132 147/270/141 99/271/134
f 84/273/132 66/274/131 122/275/142
f 84/273/132 122/275/142 155/276/143
f 84/273/132 155/276/143 147/270/141
f 148/213/123 124/216/126 76/211/122
f 122/275/142 148/213/123 76/211/122
f 122/275/142 76/211/122 150/210/121
f 66/274/131 96/277/130 148/213/123 122/275/142
f 96/277/130 57/278/129 81/214/124 148/213/123
f 154/269/140 156/209/120 151/212/28 123/266/138
f 147/270/141 155/276/143 156/209/120 154/269/140
f 155/279/143 122/280/142 150/281/121 156/282/120
f 152/265/137 157/268/139 153/207/118 146/208/119
f 123/266/138 151/212/28 157/268/139 152/265/137
f 151/212/28 76/211/122 149/229/127 157/268/139
