# Blender v2.63 (sub 0) OBJ File: 'boat1.blend'
# www.blender.org
mtllib hull.mtl
o Cube_Cube.001
v -0.285270 -0.186832 2.791517
v -0.285270 -0.186832 1.344578
v 0.283194 -0.186832 1.344578
v 0.283194 -0.186832 2.791517
v -0.753903 0.819143 3.741344
v -0.376342 0.819143 -0.908140
v 0.374266 0.819143 -0.908140
v 0.751827 0.819143 3.741344
v -0.758018 0.819143 0.053121
v -0.385644 0.316155 -0.992488
v -0.285270 -0.186832 1.637281
v -0.857797 0.316155 3.848497
v -0.001038 0.782102 -1.349634
v 0.383568 0.316155 -0.992488
v -0.001038 -0.186832 1.344578
v 0.755941 0.819143 0.053121
v 0.855721 0.316155 3.848497
v 0.283194 -0.186832 1.637281
v -0.001038 0.819143 3.843723
v -0.001038 -0.186832 2.791517
v -0.862479 0.316155 0.007512
v -0.001038 0.316155 -1.290046
v 0.860403 0.316155 0.007512
v -0.001038 0.316155 3.950876
v -0.001038 -0.186832 1.637281
v -0.001038 0.504024 0.178674
v -0.636199 0.819143 -0.427510
v -0.563703 0.064662 -0.355975
v -0.285270 -0.186832 2.645165
v -0.857797 0.567649 3.848497
v 0.255285 0.819143 -1.067355
v 0.561626 0.064662 -0.355975
v -0.143154 -0.186832 1.344578
v 0.877698 0.819143 3.363093
v 0.777400 0.064662 3.648563
v 0.283194 -0.186832 1.490929
v -0.440406 0.819143 3.843723
v 0.141078 -0.186832 2.791517
v -0.879774 0.819143 3.363093
v -0.385644 0.567649 -0.992488
v -0.285270 -0.186832 1.490929
v -0.779476 0.064662 3.648563
v -0.257361 0.819143 -1.067355
v 0.383568 0.567649 -0.992488
v 0.141078 -0.186832 1.344578
v 0.634123 0.819143 -0.427510
v 0.855721 0.567649 3.848497
v 0.283194 -0.186832 2.645165
v 0.438330 0.819143 3.843723
v -0.143154 -0.186832 2.791517
v -0.779476 0.064662 0.454108
v -0.862479 0.567649 0.007512
v -1.001038 0.316155 3.450876
v -0.723850 0.316155 -0.492488
v -0.001038 0.064662 -0.355975
v -0.001038 0.691969 -1.443834
v -0.193341 0.316155 -1.151703
v 0.191265 0.316155 -1.151703
v 0.777400 0.064662 0.454108
v 0.860403 0.567649 0.007512
v 0.721774 0.316155 -0.492488
v 0.998962 0.316155 3.450876
v -0.001038 0.064662 3.648563
v -0.001038 0.567649 3.950876
v 0.498962 0.316155 3.950876
v -0.501038 0.316155 3.950876
v 0.141078 -0.186832 1.637281
v -0.143154 -0.186832 1.637281
v -0.001038 -0.186832 2.645165
v -0.001038 -0.186832 1.490929
v -0.517633 0.791952 0.178674
v 0.515557 0.791952 0.178674
v -0.001038 0.504024 3.488646
v -0.001038 0.819143 -0.427510
v -0.671617 0.064662 0.049066
v 0.280294 0.064662 -0.355975
v 0.777400 0.064662 3.243521
v -0.390257 0.064662 3.648563
v 0.141078 -0.186832 1.490929
v -0.318619 0.819143 -0.427510
v -0.779476 0.064662 3.243521
v -1.001038 0.567649 3.450876
v -0.723850 0.567649 -0.492488
v -0.282370 0.064662 -0.355975
v -0.263714 0.567649 -1.151703
v 0.261638 0.567649 -1.151703
v 0.669540 0.064662 0.049066
v 0.721774 0.567649 -0.492488
v 0.998962 0.567649 3.450876
v 0.388181 0.064662 3.648563
v 0.498962 0.567649 3.950876
v -0.501038 0.567649 3.950876
v 0.141078 -0.186832 2.645165
v -0.143154 -0.186832 2.645165
v -0.143154 -0.186832 1.490929
v -0.600725 0.791952 3.488646
v 0.598649 0.791952 3.488646
v 0.316542 0.819143 -0.427510
v -0.259336 0.504024 0.178674
v 0.257259 0.504024 0.178674
v -0.001038 0.504024 1.833660
v -0.300882 0.504024 3.488646
v -0.559179 0.791952 1.833660
v 0.298805 0.504024 3.488646
v 0.557103 0.791952 1.833660
v 0.278032 0.504024 1.833660
v -0.280109 0.504024 1.833660
vt 0.069871 0.234737
vt 0.089281 0.163910
vt 0.141200 0.463123
vt 0.140938 0.488762
vt 0.235426 0.164938
vt 0.284141 0.165281
vt 0.239634 0.463815
vt 0.215026 0.463642
vt 0.315068 0.796130
vt 0.314344 0.867088
vt 0.237047 0.717301
vt 0.237309 0.691662
vt 0.138613 0.716608
vt 0.163222 0.716781
vt 0.112155 0.865665
vt 0.044758 0.865191
vt 0.214764 0.489281
vt 0.239373 0.489454
vt 0.418447 0.748310
vt 0.429067 0.860421
vt 0.408250 0.832498
vt 0.362808 0.748230
vt 0.045483 0.794233
vt 0.050470 0.305563
vt 0.140677 0.514401
vt 0.138875 0.690969
vt 0.678075 0.830027
vt 0.682976 0.294397
vt 0.726755 0.292381
vt 0.721854 0.828011
vt 0.681318 0.206344
vt 0.675667 0.100986
vt 0.719446 0.098970
vt 0.725096 0.204328
vt 0.137996 0.164253
vt 0.186711 0.164596
vt 0.190417 0.463469
vt 0.165809 0.463296
vt 0.673583 0.066203
vt 0.647340 0.000000
vt 0.712416 0.020373
vt 0.715954 0.058085
vt 0.860854 0.067448
vt 0.859278 0.102542
vt 0.815372 0.100655
vt 0.818005 0.058355
vt 0.302103 0.236371
vt 0.320055 0.307460
vt 0.239111 0.515093
vt 0.855001 0.208176
vt 0.853723 0.293374
vt 0.809817 0.291487
vt 0.811095 0.206289
vt 0.857186 0.796549
vt 0.859979 0.838348
vt 0.816073 0.836461
vt 0.813281 0.794662
vt 0.246948 0.866613
vt 0.179551 0.866139
vt 0.187830 0.716954
vt 0.212439 0.717127
vt 0.957007 0.237867
vt 0.956738 0.150251
vt 0.999731 0.150119
vt 1.000000 0.237735
vt 0.956470 0.062635
vt 0.952336 0.000132
vt 0.995329 0.000000
vt 0.999462 0.062503
vt 0.212700 0.691489
vt 0.214502 0.514920
vt 0.163483 0.691142
vt 0.165285 0.514574
vt 0.189894 0.514747
vt 0.188092 0.691315
vt 0.165547 0.488935
vt 0.190156 0.489108
vt 0.383783 0.641958
vt 0.341550 0.663997
vt 0.320802 0.084091
vt 0.376795 0.352010
vt 0.369808 0.062061
vt 0.524481 0.351115
vt 0.520551 0.641048
vt 0.475298 0.640982
vt 0.475589 0.351044
vt 0.529726 0.748471
vt 0.518881 0.860550
vt 0.474054 0.909796
vt 0.474087 0.748391
vt 0.030149 0.226266
vt 0.055048 0.138841
vt 0.114505 0.051660
vt 0.181635 0.000000
vt 0.214686 0.024470
vt 0.247700 0.052597
vt 0.772370 0.740643
vt 0.767878 0.344522
vt 0.773022 0.798162
vt 0.172264 0.918142
vt 0.085685 0.917533
vt 0.024092 0.899163
vt 0.430044 0.640917
vt 0.000000 0.829330
vt 0.767878 0.351080
vt 0.761663 0.775252
vt 0.674325 0.878071
vt 0.718103 0.876055
vt 0.628707 0.854785
vt 0.632067 0.808180
vt 0.637007 0.294291
vt 0.635642 0.210641
vt 0.631515 0.115022
vt 0.148088 0.024002
vt 0.629490 0.080494
vt 0.631440 0.015047
vt 0.886034 0.000000
vt 0.820672 0.019019
vt 0.901921 0.014053
vt 0.904991 0.080662
vt 0.903459 0.115455
vt 0.768846 0.275959
vt 0.769816 0.207390
vt 0.900328 0.210315
vt 0.899272 0.291042
vt 0.902773 0.773554
vt 0.905273 0.814381
vt 0.320802 0.901251
vt 0.258843 0.918751
vt 0.953257 0.300395
vt 0.996250 0.300263
vt 0.906083 0.282334
vt 0.909856 0.227387
vt 0.909620 0.150396
vt 0.909384 0.073405
vt 0.905273 0.018482
vt 0.397863 0.000000
vt 0.342921 0.017857
vt 0.423349 0.061031
vt 0.475880 0.061107
vt 0.474839 0.000111
vt 0.426697 0.350974
vt 0.528412 0.061183
vt 0.579935 0.062365
vt 0.551815 0.000222
vt 0.606721 0.018237
vt 0.628707 0.084535
vt 0.606792 0.664380
vt 0.564795 0.642219
vt 0.572365 0.352292
vt 0.585366 0.748551
vt 0.539755 0.832687
vt 0.905322 0.548499
vt 0.905273 0.300395
vt 0.960921 0.319462
vt 0.961417 0.569360
vn -0.576373 -0.801996 -0.156682
vn -0.406598 -0.863613 -0.298044
vn -0.174627 -0.981719 -0.075625
vn -0.173315 -0.984252 -0.033906
vn 0.050752 -0.971068 -0.233222
vn 0.406598 -0.863613 -0.298044
vn 0.174627 -0.981719 -0.075625
vn 0.000000 -0.997284 -0.073336
vn 0.667043 -0.744774 0.017182
vn 0.435255 -0.821619 0.368053
vn 0.194220 -0.976074 0.097507
vn 0.233192 -0.972411 0.000000
vn -0.194220 -0.976074 0.097507
vn 0.000000 -0.989807 0.142216
vn -0.019929 -0.875851 0.482101
vn -0.435255 -0.821619 0.368053
vn 0.000000 -1.000000 0.000000
vn 0.173315 -0.984252 -0.033906
vn 0.112918 0.984832 0.131504
vn -0.454390 0.800470 -0.390790
vn -0.515671 0.783990 -0.345500
vn -0.541948 0.811151 -0.219764
vn -0.667043 -0.744774 0.017182
vn -0.641743 -0.764550 -0.059725
vn -0.224616 -0.974425 -0.004730
vn -0.233192 -0.972411 0.000000
vn -0.960753 0.228523 0.157170
vn -0.967498 0.201758 -0.152287
vn -0.934721 -0.310282 -0.173132
vn -0.949553 -0.286874 0.126469
vn -0.897671 0.173956 -0.404859
vn -0.793542 0.104862 -0.599353
vn -0.599170 -0.539659 -0.591357
vn -0.861599 -0.321757 -0.392560
vn -0.050752 -0.971068 -0.233222
vn 0.000000 -0.976562 -0.215125
vn -0.728263 0.031587 -0.684561
vn 0.000000 0.111301 -0.993774
vn 0.000000 -0.653981 -0.756493
vn -0.447218 -0.661245 -0.602222
vn 0.728263 0.031587 -0.684561
vn 0.793542 0.104862 -0.599353
vn 0.599170 -0.539659 -0.591357
vn 0.447218 -0.661245 -0.602222
vn 0.576373 -0.801996 -0.156682
vn 0.641743 -0.764550 -0.059725
vn 0.224616 -0.974425 -0.004730
vn 0.897671 0.173956 -0.404859
vn 0.967498 0.201758 -0.152287
vn 0.934721 -0.310282 -0.173132
vn 0.861599 -0.321757 -0.392560
vn 0.960753 0.228523 0.157170
vn 0.666128 0.245949 0.704093
vn 0.621052 -0.367321 0.692343
vn 0.949553 -0.286874 0.126469
vn 0.019929 -0.875851 0.482101
vn 0.000000 -0.882473 0.470321
vn 0.145970 0.215125 0.965606
vn 0.000000 0.200018 0.979766
vn 0.000000 -0.424512 0.905393
vn 0.106510 -0.394024 0.912900
vn -0.145970 0.215125 0.965606
vn -0.666128 0.245949 0.704093
vn -0.621052 -0.367321 0.692343
vn -0.106510 -0.394024 0.912900
vn 0.305338 0.945860 0.109989
vn -0.541276 0.838008 -0.068728
vn -0.529038 0.846522 0.058718
vn 0.436781 0.899503 0.008911
vn 0.278664 0.947935 -0.153935
vn -0.390027 0.920774 0.007324
vn -0.359905 0.912595 0.193884
vn 0.000000 0.975646 0.219214
vn 0.000000 1.000000 0.000000
vn -0.112949 0.984832 0.131504
vn 0.454390 0.800470 -0.390790
vn 0.000000 0.734367 -0.678701
vn 0.000000 0.977996 0.208563
vn 0.359874 0.912595 0.193884
vn -0.386334 0.827174 0.408002
vn 0.515671 0.783990 -0.345500
vn 0.541948 0.811151 -0.219764
vn 0.541368 0.837947 -0.068728
vn 0.529191 0.846431 0.058718
vn 0.386334 0.827174 0.408002
vn -0.023072 0.913266 0.406690
vn 0.001251 0.964141 0.265358
vn 0.024537 0.913114 0.406903
vn 0.325358 0.902799 -0.281106
vn 0.000793 0.947142 -0.320811
vn 0.390027 0.920774 0.007324
vn -0.323985 0.903256 -0.281289
vn -0.277932 0.948149 -0.154027
vn -0.305185 0.945891 0.109989
vn -0.436567 0.899594 0.008911
usemtl _hull1.jpg
s 1
f 75/1/1 28/2/2 2/3/3 41/4/4
f 76/5/5 32/6/6 3/7/7 45/8/8
f 77/9/9 35/10/10 4/11/11 48/12/12
f 1/13/13 50/14/14 78/15/15 42/16/16
f 79/17/17 45/8/8 3/7/7 36/18/18
f 80/19/19 43/20/20 6/21/21 27/22/22
f 81/23/23 51/24/24 11/25/25 29/26/26
f 82/27/27 52/28/28 21/29/29 53/30/30
f 83/31/31 40/32/32 10/33/33 54/34/34
f 84/35/35 55/36/36 15/37/8 33/38/8
f 85/39/37 56/40/38 22/41/39 57/42/40
f 86/43/41 44/44/42 14/45/43 58/46/44
f 87/47/45 59/48/46 18/49/47 36/18/18
f 88/50/48 60/51/49 23/52/50 61/53/51
f 89/54/52 47/55/53 17/56/54 62/57/55
f 90/58/56 63/59/57 20/60/14 38/61/14
f 91/62/58 64/63/59 24/64/60 65/65/61
f 92/66/62 30/67/63 12/68/64 66/69/65
f 93/70/17 67/71/17 18/49/47 48/12/12
f 94/72/17 68/73/17 25/74/17 69/75/17
f 95/76/17 33/38/8 15/37/8 70/77/17
f 71/78/66 9/79/67 39/80/68
f 103/81/69 71/78/66 39/80/68
f 96/82/70 103/81/69 39/80/68
f 106/83/71 100/84/72 26/85/73 101/86/74
f 98/87/75 31/88/76 13/89/77 74/90/78
f 51/24/24 75/1/1 41/4/4 11/25/25
f 21/91/29 54/92/34 75/1/1 51/24/24
f 54/92/34 10/93/33 28/2/2 75/1/1
f 55/36/36 76/5/5 45/8/8 15/37/8
f 22/94/39 58/95/44 76/5/5 55/36/36
f 58/95/44 14/96/43 32/6/6 76/5/5
f 59/48/46 77/9/9 48/12/12 18/49/47
f 23/52/50 62/57/55 77/97/9 59/98/46
f 62/57/55 17/56/54 35/99/10 77/97/9
f 63/59/57 78/15/15 50/14/14 20/60/14
f 24/100/60 66/101/65 78/15/15 63/59/57
f 66/101/65 12/102/64 42/16/16 78/15/15
f 67/71/17 79/17/17 36/18/18 18/49/47
f 25/74/17 70/77/17 79/17/17 67/71/17
f 70/77/17 15/37/8 45/8/8 79/17/17
f 71/78/66 80/19/19 27/22/22 9/79/67
f 74/90/78 80/19/19 71/78/66
f 26/85/73 74/90/78 71/78/66
f 26/85/73 71/78/66 99/103/79
f 74/90/78 13/89/77 43/20/20 80/19/19
f 29/26/26 1/13/13 42/16/16 81/23/23
f 12/102/64 53/104/30 81/23/23 42/16/16
f 53/30/30 21/29/29 51/105/24 81/106/23
f 30/107/63 82/27/27 53/30/30 12/108/64
f 5/109/80 39/110/68 82/27/27 30/107/63
f 39/110/68 9/111/67 52/28/28 82/27/27
f 52/28/28 83/31/31 54/34/34 21/29/29
f 9/111/67 27/112/22 83/31/31 52/28/28
f 27/112/22 6/113/21 40/32/32 83/31/31
f 28/2/2 84/35/35 33/38/8 2/3/3
f 10/93/33 57/114/40 84/35/35 28/2/2
f 57/114/40 22/94/39 55/36/36 84/35/35
f 40/32/32 85/39/37 57/42/40 10/33/33
f 6/113/21 43/115/20 85/39/37 40/32/32
f 43/115/20 13/116/77 56/40/38 85/39/37
f 56/117/38 86/43/41 58/46/44 22/118/39
f 13/119/77 31/120/76 86/43/41 56/117/38
f 31/120/76 7/121/81 44/44/42 86/43/41
f 32/6/6 87/47/45 36/18/18 3/7/7
f 14/45/43 61/53/51 87/122/45 32/123/6
f 61/53/51 23/52/50 59/98/46 87/122/45
f 44/44/42 88/50/48 61/53/51 14/45/43
f 7/121/81 46/124/82 88/50/48 44/44/42
f 46/124/82 16/125/83 60/51/49 88/50/48
f 60/51/49 89/54/52 62/57/55 23/52/50
f 16/125/83 34/126/84 89/54/52 60/51/49
f 34/126/84 8/127/85 47/55/53 89/54/52
f 35/10/10 90/58/56 38/61/14 4/11/11
f 17/128/54 65/129/61 90/58/56 35/10/10
f 65/129/61 24/100/60 63/59/57 90/58/56
f 47/130/53 91/62/58 65/65/61 17/131/54
f 8/132/85 49/133/86 91/62/58 47/130/53
f 49/133/86 19/134/87 64/63/59 91/62/58
f 64/63/59 92/66/62 66/69/65 24/64/60
f 19/134/87 37/135/88 92/66/62 64/63/59
f 37/135/88 5/136/80 30/67/63 92/66/62
f 38/61/14 93/70/17 48/12/12 4/11/11
f 20/60/14 69/75/17 93/70/17 38/61/14
f 69/75/17 25/74/17 67/71/17 93/70/17
f 50/14/14 94/72/17 69/75/17 20/60/14
f 1/13/13 29/26/26 94/72/17 50/14/14
f 29/26/26 11/25/25 68/73/17 94/72/17
f 68/73/17 95/76/17 70/77/17 25/74/17
f 11/25/25 41/4/4 95/76/17 68/73/17
f 41/4/4 2/3/3 33/38/8 95/76/17
f 37/137/88 96/82/70 39/80/68 5/138/80
f 102/139/89 96/82/70 37/137/88
f 73/140/90 102/139/89 37/137/88
f 19/141/87 73/140/90 37/137/88
f 107/142/91 99/103/79 71/78/66 103/81/69
f 104/143/92 73/140/90 19/141/87
f 97/144/93 104/143/92 19/141/87
f 49/145/86 97/144/93 19/141/87
f 8/146/85 34/147/84 97/144/93 49/145/86
f 34/147/84 16/148/83 72/149/94
f 34/147/84 72/149/94 105/150/95
f 34/147/84 105/150/95 97/144/93
f 98/87/75 74/90/78 26/85/73
f 72/149/94 98/87/75 26/85/73
f 72/149/94 26/85/73 100/84/72
f 16/148/83 46/151/82 98/87/75 72/149/94
f 46/151/82 7/152/81 31/88/76 98/87/75
f 104/143/92 106/83/71 101/86/74 73/140/90
f 97/144/93 105/150/95 106/83/71 104/143/92
f 105/153/95 72/154/94 100/155/72 106/156/71
f 102/139/89 107/142/91 103/81/69 96/82/70
f 73/140/90 101/86/74 107/142/91 102/139/89
f 101/86/74 26/85/73 99/103/79 107/142/91
