# Blender v2.63 (sub 0) OBJ File: 'boat1.blend'
# www.blender.org
mtllib sail.mtl
o Cylinder_Cylinder.003
v -0.002990 1.856002 3.033175
v -0.002990 1.783836 0.041183
v 0.000913 1.783836 0.041183
v 0.000913 1.856002 3.033175
v -0.002990 7.220709 1.563206
v -0.002990 8.084932 0.010794
v 0.000913 8.084932 0.010794
v 0.000913 7.220709 1.563206
v -0.001038 1.808227 3.866161
v -0.001038 1.690569 0.008354
v 0.040117 1.831640 3.865448
v 0.040117 1.713982 0.007639
v 0.057164 1.888163 3.863724
v 0.057164 1.770506 0.005916
v 0.040117 1.944687 3.862000
v 0.040117 1.827030 0.004192
v -0.001038 1.968100 3.861286
v -0.001038 1.850443 0.003478
v -0.042194 1.944687 3.862000
v -0.042194 1.827030 0.004192
v -0.059241 1.888163 3.863724
v -0.059241 1.770506 0.005916
v -0.042194 1.831640 3.865448
v -0.042194 1.713982 0.007639
v -0.001038 0.199784 0.007512
v -0.001038 8.199784 0.007512
v -0.001038 0.199784 -0.076897
v -0.001038 8.199784 -0.014159
v 0.041166 0.199784 -0.065589
v 0.009797 8.199784 -0.011256
v 0.072062 0.199784 -0.034693
v 0.017729 8.199784 -0.003324
v 0.083371 0.199784 0.007512
v 0.020633 8.199784 0.007512
v 0.072062 0.199784 0.049716
v 0.017729 8.199784 0.018347
v 0.041166 0.199784 0.080612
v 0.009797 8.199784 0.026279
v -0.001038 0.199784 0.091921
v -0.001038 8.199784 0.029183
v -0.043243 0.199784 0.080612
v -0.011874 8.199784 0.026279
v -0.074138 0.199784 0.049716
v -0.019806 8.199784 0.018347
v -0.085447 0.199784 0.007512
v -0.022709 8.199784 0.007512
v -0.074138 0.199784 -0.034693
v -0.019806 8.199784 -0.003324
v -0.043243 0.199784 -0.065589
v -0.011874 8.199784 -0.011256
vt 0.433733 0.000000
vt 0.867466 0.007799
vt 0.659175 0.786681
vt 0.434932 0.913324
vt 0.994651 0.000002
vt 0.995216 0.000000
vt 0.985668 0.735200
vt 0.985206 0.735201
vt 0.432534 0.913324
vt 0.208291 0.786681
vt 0.000000 0.007799
vt 0.987305 0.612757
vt 0.986842 0.612758
vt 0.997997 0.000002
vt 0.998563 0.000000
vt 0.972253 0.380517
vt 0.973340 0.814241
vt 0.972877 0.814243
vt 0.971791 0.380519
vt 0.934263 0.609943
vt 0.933690 0.381314
vt 0.934152 0.381312
vt 0.934725 0.609942
vt 0.973326 0.000000
vt 0.966918 0.381128
vt 0.962046 0.381232
vt 0.967361 0.000104
vt 0.933690 0.381309
vt 0.934467 0.000000
vt 0.942656 0.000001
vt 0.940379 0.381310
vt 0.950861 0.000003
vt 0.947080 0.381312
vt 0.973190 0.380517
vt 0.981007 0.000222
vt 0.986971 0.000000
vt 0.978062 0.380295
vt 0.992937 0.000186
vt 0.982935 0.380480
vt 0.947255 0.381312
vt 0.959065 0.000001
vt 0.953956 0.381310
vt 0.801937 0.415179
vt 0.806660 0.410199
vt 0.813353 0.411716
vt 0.801950 0.423737
vt 0.818095 0.418840
vt 0.806691 0.430862
vt 0.818108 0.427399
vt 0.813385 0.432378
vt 0.979291 0.000067
vt 0.971791 0.381195
vt 0.967254 0.000000
vt 0.960645 0.381309
vt 0.839541 0.340227
vt 0.832848 0.341740
vt 0.828125 0.336760
vt 0.828139 0.328205
vt 0.844283 0.333108
vt 0.832882 0.321086
vt 0.844297 0.324554
vt 0.839575 0.319574
vt 0.829926 0.422017
vt 0.838577 0.413366
vt 0.841744 0.418850
vt 0.876573 0.738232
vt 0.874095 0.737420
vt 0.874759 0.736012
vt 0.905038 0.981367
vt 0.892124 0.000007
vt 0.893692 0.000000
vt 0.910028 0.981338
vt 0.841744 0.425183
vt 0.874095 0.739046
vt 0.888658 0.000065
vt 0.887021 0.981487
vt 0.886082 0.981480
vt 0.884179 0.000038
vt 0.838577 0.430668
vt 0.874758 0.740454
vt 0.884799 0.981474
vt 0.878062 0.000014
vt 0.833093 0.433835
vt 0.875908 0.741266
vt 0.883517 0.981470
vt 0.871945 0.000000
vt 0.826760 0.433834
vt 0.877236 0.741266
vt 0.882577 0.981470
vt 0.867466 0.000000
vt 0.821275 0.430668
vt 0.878386 0.740453
vt 0.922126 0.000139
vt 0.917053 0.979133
vt 0.915772 0.979098
vt 0.916017 0.000000
vt 0.818108 0.425183
vt 0.879050 0.739045
vt 0.914488 0.979123
vt 0.909891 0.000097
vt 0.818108 0.418850
vt 0.879050 0.737419
vt 0.913544 0.979201
vt 0.905392 0.000403
vt 0.821275 0.413365
vt 0.878387 0.736011
vt 0.934361 0.000000
vt 0.932882 0.981470
vt 0.931599 0.981474
vt 0.928243 0.000014
vt 0.826759 0.410199
vt 0.877237 0.735199
vt 0.930316 0.981480
vt 0.922126 0.000038
vt 0.833093 0.410199
vt 0.875909 0.735199
vt 0.896360 0.981463
vt 0.889396 0.000032
vt 0.890551 0.000019
vt 0.900035 0.981413
vt 0.839409 0.320233
vt 0.828535 0.336901
vt 0.828376 0.328321
vt 0.844033 0.333267
vt 0.844178 0.324606
vt 0.839321 0.320037
vn -0.576342 -0.586138 -0.569414
vn -0.565600 -0.492233 0.661641
vn -0.629414 0.479537 0.611408
vn -0.555071 0.716056 -0.423231
vn 0.555071 0.716056 -0.423231
vn 0.576342 -0.586138 -0.569414
vn 0.629414 0.479537 0.611408
vn 0.565600 -0.492233 0.661641
vn 0.022248 -0.999268 0.030152
vn 0.000092 -0.810022 -0.586383
vn 0.605731 -0.502091 -0.617206
vn 0.790704 -0.611896 0.018311
vn 0.762047 -0.019898 -0.647175
vn 0.999969 -0.000214 -0.000336
vn 0.605853 0.463271 -0.646748
vn 0.790887 0.611621 -0.018983
vn 0.000092 0.772637 -0.634785
vn 0.022248 0.999268 -0.030793
vn -0.605731 0.463332 -0.646809
vn -0.772576 0.634571 -0.019684
vn -0.761956 -0.019898 -0.647267
vn -0.999969 -0.000214 -0.000336
vn -0.605609 -0.502121 -0.617267
vn -0.772362 -0.634846 0.019013
vn 0.000000 -1.000000 0.000000
vn 0.000000 -0.650288 -0.759667
vn 0.379833 -0.650288 -0.657888
vn 0.000000 1.000000 0.000000
vn 0.377300 0.656117 -0.653523
vn 0.000000 0.656117 -0.754631
vn 0.657888 -0.650288 -0.379833
vn 0.653523 0.656117 -0.377300
vn 0.759667 -0.650288 0.000000
vn 0.754631 0.656117 0.000000
vn 0.657888 -0.650288 0.379833
vn 0.653523 0.656117 0.377300
vn 0.379833 -0.650288 0.657888
vn 0.377300 0.656117 0.653523
vn 0.000000 -0.650288 0.759667
vn 0.000000 0.656117 0.754631
vn -0.379833 -0.650288 0.657888
vn -0.377300 0.656117 0.653523
vn -0.657888 -0.650288 0.379833
vn -0.653523 0.656117 0.377300
vn -0.759667 -0.650288 0.000000
vn -0.754631 0.656117 0.000000
vn -0.657888 -0.650288 -0.379833
vn -0.653523 0.656117 -0.377300
vn -0.379833 -0.650288 -0.657888
vn -0.377300 0.656117 -0.653523
usemtl _sail1.png
s 1
f 2/1/1 1/2/2 5/3/3 6/4/4
f 6/5/4 7/6/5 3/7/6 2/8/1
f 7/9/5 8/10/7 4/11/8 3/1/6
f 1/12/2 4/13/8 8/14/7 5/15/3
f 1/16/2 2/17/1 3/18/6 4/19/8
f 8/20/7 7/21/5 6/22/4 5/23/3
f 9/24/9 10/25/10 12/26/11 11/27/12
f 11/28/12 12/29/11 14/30/13 13/31/14
f 13/31/14 14/30/13 16/32/15 15/33/16
f 15/34/16 16/35/15 18/36/17 17/37/18
f 17/37/18 18/36/17 20/38/19 19/39/20
f 19/40/20 20/32/19 22/41/21 21/42/22
f 20/43/19 18/44/17 16/45/15
f 22/46/21 20/43/19 16/45/15
f 22/46/21 16/45/15 14/47/13
f 24/48/23 22/46/21 14/47/13
f 12/49/11 24/48/23 14/47/13
f 12/49/11 10/50/10 24/48/23
f 23/51/24 24/52/23 10/25/10 9/24/9
f 21/42/22 22/41/21 24/53/23 23/54/24
f 15/55/16 17/56/18 19/57/20
f 15/55/16 19/57/20 21/58/22
f 13/59/14 15/55/16 21/58/22
f 13/59/14 21/58/22 23/60/24
f 11/61/12 13/59/14 23/60/24
f 9/62/9 11/61/12 23/60/24
f 25/63/25 27/64/26 29/65/27
f 26/66/28 30/67/29 28/68/30
f 27/69/26 28/70/30 30/71/29 29/72/27
f 25/63/25 29/65/27 31/73/31
f 26/66/28 32/74/32 30/67/29
f 29/75/27 30/76/29 32/77/32 31/78/31
f 25/63/25 31/73/31 33/79/33
f 26/66/28 34/80/34 32/74/32
f 31/78/31 32/77/32 34/81/34 33/82/33
f 25/63/25 33/79/33 35/83/35
f 26/66/28 36/84/36 34/80/34
f 33/82/33 34/81/34 36/85/36 35/86/35
f 25/63/25 35/83/35 37/87/37
f 26/66/28 38/88/38 36/84/36
f 35/86/35 36/85/36 38/89/38 37/90/37
f 25/63/25 37/87/37 39/91/39
f 26/66/28 40/92/40 38/88/38
f 37/93/37 38/94/38 40/95/40 39/96/39
f 25/63/25 39/91/39 41/97/41
f 26/66/28 42/98/42 40/92/40
f 39/96/39 40/95/40 42/99/42 41/100/41
f 25/63/25 41/97/41 43/101/43
f 26/66/28 44/102/44 42/98/42
f 41/100/41 42/99/42 44/103/44 43/104/43
f 25/63/25 43/101/43 45/105/45
f 26/66/28 46/106/46 44/102/44
f 43/107/43 44/108/44 46/109/46 45/110/45
f 25/63/25 45/105/45 47/111/47
f 26/66/28 48/112/48 46/106/46
f 45/110/45 46/109/46 48/113/48 47/114/47
f 25/63/25 47/111/47 49/115/49
f 26/66/28 50/116/50 48/112/48
f 47/117/47 48/118/48 50/119/50 49/120/49
f 25/63/25 49/115/49 27/64/26
f 26/66/28 28/68/30 50/116/50
f 49/120/49 50/119/50 28/70/30 27/69/26
f 9/121/9 19/56/20 17/122/18
f 9/121/9 21/57/22 19/123/20
f 9/121/9 17/55/18 15/124/16
f 9/121/9 15/59/16 13/125/14
f 13/125/14 11/62/12 9/121/9
f 21/126/22 9/60/9 23/58/24
